<svg width="27" height="21" viewBox="0 0 27 21" fill="none" xmlns="http://www.w3.org/2000/svg">
<path d="M26.9947 15.0193C26.9367 12.5145 26.172 9.17109 24.9486 6.07558C24.3896 4.65703 23.7831 3.43886 23.1978 2.5582C22.4173 1.37695 21.716 0.828512 20.9777 0.828512C20.5611 0.828512 20.1867 0.812692 19.8281 0.796871C18.921 0.759957 18.1353 0.728317 17.455 1.00781C16.7536 1.29785 16.3476 1.84101 16.0997 2.38418H10.9001C10.6523 1.84101 10.2462 1.29785 9.54486 1.00781C8.85931 0.728317 8.07885 0.759957 7.17181 0.796871C6.80795 0.812692 6.43353 0.828512 6.0222 0.828512C5.28392 0.828512 4.58256 1.37695 3.80209 2.5582C3.21674 3.44414 2.61556 4.6623 2.05131 6.08085C0.827868 9.17109 0.06322 12.5144 0.00521217 15.0246C-0.0949831 19.4227 1.97748 20.1715 3.22201 20.2295H3.33275C4.57728 20.2295 5.9431 19.275 7.49877 17.3238C8.23177 16.4062 8.8224 15.4887 9.14408 14.9719H17.8558C18.1722 15.4887 18.7681 16.401 19.5011 17.3238C21.1095 19.333 22.507 20.2875 23.7779 20.2295C25.0224 20.1715 27.0949 19.4174 26.9947 15.0193ZM15.4195 4.07168C14.8974 4.91015 14.138 5.22656 13.4999 5.22656C12.8619 5.22656 12.1025 4.90488 11.5804 4.07168H15.4195ZM25.2333 16.5486C24.9486 18.484 24.0415 18.5262 23.704 18.542C23.4667 18.5525 22.5439 18.4207 20.8353 16.285C19.8281 15.0246 19.0792 13.7221 19.0687 13.7115C18.9158 13.4478 18.6415 13.2844 18.3357 13.2844H8.6642C8.36361 13.2844 8.08412 13.4478 7.93119 13.7062C7.92591 13.7168 7.17709 15.0193 6.16459 16.2797C4.45599 18.4154 3.53314 18.5473 3.29584 18.5367C2.95306 18.5209 2.05131 18.4787 1.76654 16.5434C1.4765 14.5605 2.00912 11.2594 3.15873 7.93183C3.67025 6.46054 4.26615 5.09472 4.84095 4.08222C5.55814 2.82187 5.97474 2.55293 6.05912 2.51074C6.49154 2.51074 6.88705 2.49492 7.2351 2.4791C8.90677 2.41054 9.20736 2.4 9.55013 3.59707C10.1249 5.61679 11.6753 6.91406 13.4999 6.91406C15.3245 6.91406 16.8749 5.61152 17.4497 3.59707C17.7925 2.4 18.0931 2.41054 19.7648 2.4791C20.1128 2.49492 20.5083 2.51074 20.9408 2.51074C21.0251 2.55293 21.447 2.82187 22.1589 4.08222C22.7337 5.09472 23.3296 6.46054 23.8412 7.93183C24.9908 11.2594 25.5234 14.5605 25.2333 16.5486ZM10.0089 9.13418C10.0089 9.59824 9.62924 9.97793 9.16517 9.97793H8.09994V11.0432C8.09994 11.5072 7.72025 11.8869 7.25619 11.8869C6.79213 11.8869 6.41244 11.5072 6.41244 11.0432V9.97793H5.3472C4.88314 9.97793 4.50345 9.59824 4.50345 9.13418C4.50345 8.67011 4.88314 8.29043 5.3472 8.29043H6.41244V7.22519C6.41244 6.76113 6.79213 6.38144 7.25619 6.38144C7.72025 6.38144 8.09994 6.76113 8.09994 7.22519V8.29043H9.16517C9.63451 8.29043 10.0089 8.66484 10.0089 9.13418ZM20.5874 7.21992V7.43086C20.5874 7.89492 20.2078 8.27461 19.7437 8.27461C19.2796 8.27461 18.8999 7.89492 18.8999 7.43086V7.21992C18.8999 6.75586 19.2796 6.37617 19.7437 6.37617C20.2078 6.37617 20.5874 6.75586 20.5874 7.21992ZM20.5874 10.8375V11.0432C20.5874 11.5072 20.2078 11.8869 19.7437 11.8869C19.2796 11.8869 18.8999 11.5072 18.8999 11.0432V10.8375C18.8999 10.3734 19.2796 9.99375 19.7437 9.99375C20.2078 9.99375 20.5874 10.3682 20.5874 10.8375ZM22.4964 9.13418C22.4964 9.59824 22.1167 9.97793 21.6527 9.97793H21.4417C20.9777 9.97793 20.598 9.59824 20.598 9.13418C20.598 8.67011 20.9777 8.29043 21.4417 8.29043H21.6527C22.122 8.29043 22.4964 8.66484 22.4964 9.13418ZM18.8841 9.13418C18.8841 9.59824 18.5044 9.97793 18.0404 9.97793H17.8347C17.3706 9.97793 16.991 9.59824 16.991 9.13418C16.991 8.67011 17.3706 8.29043 17.8347 8.29043H18.0404C18.5044 8.29043 18.8841 8.66484 18.8841 9.13418Z" fill="#5EC6B8"/>
</svg>
