<svg width="27" height="27" viewBox="0 0 27 27" fill="none" xmlns="http://www.w3.org/2000/svg">
<g opacity="0.5">
<path d="M13.4958 18.9439C13.0301 18.9439 12.6521 18.5659 12.6521 18.1001V11.4366C12.6521 10.9709 13.0301 10.5929 13.4958 10.5929C13.9616 10.5929 14.3396 10.9709 14.3396 11.4366V18.1001C14.3396 18.5663 13.962 18.9439 13.4958 18.9439Z" fill="#5EC6B8"/>
<path d="M13.4958 9.74953C13.2723 9.74953 13.0571 9.66094 12.901 9.50063C12.7407 9.34453 12.6521 9.12938 12.6521 8.90578C12.6521 8.68219 12.7407 8.46703 12.901 8.31094C13.2132 7.99453 13.7785 7.99453 14.0907 8.30672C14.251 8.46703 14.3396 8.68219 14.3396 8.90578C14.3396 9.12516 14.251 9.34453 14.0907 9.50063C13.9346 9.66094 13.7194 9.74953 13.4958 9.74953Z" fill="#5EC6B8"/>
<path d="M13.4675 24.4675C12.5078 24.4675 11.5564 24.3426 10.6397 24.0958C6.68926 23.0331 3.59607 19.7606 2.75949 15.7583C1.90688 11.6809 3.48048 7.39463 6.76899 4.83849C8.66996 3.36066 11.0675 2.54644 13.5203 2.54644C15.2183 2.54644 16.9045 2.94132 18.3971 3.68761C22.0831 5.53163 24.4645 9.38419 24.4645 13.503C24.4645 16.8636 22.8787 20.1028 20.2226 22.1674C18.3149 23.6507 15.9157 24.4675 13.4675 24.4675ZM13.5207 4.23394C11.4413 4.23394 9.4112 4.9216 7.80512 6.17077C5.02201 8.33414 3.68973 11.9618 4.41156 15.4128C5.11946 18.7983 7.73635 21.5671 11.0784 22.4661C11.8522 22.6741 12.6563 22.78 13.4675 22.78H13.4679C15.5427 22.78 17.5736 22.0894 19.1873 20.8351C21.4355 19.0877 22.7775 16.3468 22.7775 13.503C22.7775 10.0178 20.7622 6.7576 17.6428 5.19708C16.3831 4.56722 14.958 4.23394 13.5207 4.23394Z" fill="#5EC6B8"/>
</g>
</svg>
