<svg width="24" height="24" viewBox="0 0 24 24" fill="none" xmlns="http://www.w3.org/2000/svg">
<path fill-rule="evenodd" clip-rule="evenodd" d="M12 4.02137C10.4757 4.02137 9.23996 5.22776 9.23996 6.71592C9.23996 8.20409 10.4757 9.41048 12 9.41048C13.5243 9.41048 14.76 8.20409 14.76 6.71592C14.76 5.22776 13.5243 4.02137 12 4.02137ZM7.39996 6.71592C7.39996 4.23565 9.45945 2.225 12 2.225C14.5405 2.225 16.6 4.23565 16.6 6.71592C16.6 9.19619 14.5405 11.2069 12 11.2069C9.45945 11.2069 7.39996 9.19619 7.39996 6.71592Z" fill="#5EC6B8"/>
<path fill-rule="evenodd" clip-rule="evenodd" d="M2.79999 21.0859C2.79999 16.1254 6.91903 12.104 12 12.104C17.081 12.104 21.2 16.1254 21.2 21.0859C21.2 21.5819 20.7881 21.9841 20.28 21.9841C19.7719 21.9841 19.36 21.5819 19.36 21.0859C19.36 17.1175 16.0647 13.9004 12 13.9004C7.93523 13.9004 4.63999 17.1175 4.63999 21.0859C4.63999 21.5819 4.22809 21.9841 3.71999 21.9841C3.21189 21.9841 2.79999 21.5819 2.79999 21.0859Z" fill="#5EC6B8"/>
</svg>
