<svg width="27" height="27" viewBox="0 0 27 27" fill="none" xmlns="http://www.w3.org/2000/svg">
<g opacity="0.5">
<path d="M23.5381 19.9056H17.5154V15.7729C17.5154 15.277 17.2478 14.9464 16.8463 14.9464H10.1544C9.75294 14.9464 9.48527 15.277 9.48527 15.7729V18.8311H3.46264C3.06113 18.8311 2.79346 19.1617 2.79346 19.6576V25.6913C2.79346 26.1872 3.06113 26.5178 3.46264 26.5178H10.1544H16.8463H23.5381C23.9396 26.5178 24.2073 26.1872 24.2073 25.6913V20.7321C24.2073 20.2362 23.9396 19.9056 23.5381 19.9056ZM4.13182 20.4842H9.48527V24.8648H4.13182V20.4842ZM10.8236 19.6576V16.5995H16.1771V20.7321V24.8648H10.8236V19.6576ZM22.8689 24.8648H17.5154V21.5586H22.8689V24.8648Z" fill="#5EC6B8"/>
<path d="M18.5969 6.03411C18.5355 5.79355 18.3513 5.67327 18.1056 5.61313L15.2807 5.19215L14.0525 2.72641C13.8683 2.30543 13.1313 2.30543 12.9471 2.72641L11.7189 5.19215L8.89396 5.61313C8.64831 5.67327 8.46408 5.85369 8.40267 6.03411C8.34126 6.27467 8.40267 6.51523 8.5869 6.63551L10.6135 8.55999L10.1222 11.3264C10.0608 11.567 10.1836 11.8075 10.3678 11.9278C10.5521 12.0481 10.7977 12.1082 11.0433 11.988L13.5612 10.725L16.0791 11.988C16.2633 12.1082 16.5089 12.0481 16.7546 11.9278C16.9388 11.8075 17.0616 11.567 17.0002 11.3264L16.5089 8.55999L18.4741 6.63551C18.5969 6.51523 18.6583 6.27467 18.5969 6.03411ZM15.3421 7.95859C15.2193 8.07887 15.1579 8.31943 15.1579 8.49985L15.465 10.3642L13.7454 9.46209C13.684 9.40195 13.5612 9.40195 13.4384 9.40195C13.3156 9.40195 13.2542 9.40195 13.1313 9.46209L11.4118 10.3041L11.7189 8.43971C11.7803 8.25929 11.6575 8.01873 11.5346 7.89845L10.3064 6.63551L12.2102 6.39495C12.3944 6.39495 12.5786 6.21453 12.7015 6.09425L13.4998 4.35019L14.3596 6.03411C14.421 6.21453 14.6052 6.33481 14.8508 6.33481L16.6932 6.63551L15.3421 7.95859Z" fill="#5EC6B8"/>
</g>
</svg>
