<svg width="27" height="27" viewBox="0 0 27 27" fill="none" xmlns="http://www.w3.org/2000/svg">
<g opacity="0.5">
<path d="M9.46577 12.1815H15.813C15.9608 12.1815 16.107 12.2106 16.2435 12.2671C16.38 12.3237 16.5041 12.4065 16.6085 12.511C16.713 12.6155 16.7958 12.7395 16.8524 12.876C16.9089 13.0125 16.938 13.1588 16.938 13.3065C16.938 13.4542 16.9089 13.6005 16.8524 13.737C16.7958 13.8735 16.713 13.9975 16.6085 14.102C16.5041 14.2065 16.38 14.2893 16.2435 14.3459C16.107 14.4024 15.9608 14.4315 15.813 14.4315H9.46577L10.728 15.6937C10.939 15.9048 11.0574 16.1911 11.0573 16.4895C11.0572 16.788 10.9386 17.0741 10.7275 17.2851C10.5164 17.496 10.2301 17.6145 9.93169 17.6144C9.63326 17.6142 9.34709 17.4956 9.13615 17.2845L5.95465 14.103C5.84964 13.9987 5.76631 13.8747 5.70944 13.7381C5.65257 13.6015 5.62329 13.455 5.62329 13.3071C5.62329 13.1591 5.65257 13.0126 5.70944 12.876C5.76631 12.7394 5.84964 12.6154 5.95465 12.5111L9.13502 9.32963C9.34597 9.11853 9.63213 8.99988 9.93056 8.99977C10.229 8.99967 10.5152 9.11812 10.7263 9.32906C10.9374 9.54001 11.0561 9.82617 11.0562 10.1246C11.0563 10.423 10.9378 10.7093 10.7269 10.9204L9.46577 12.1815ZM20.25 3.375C20.5484 3.375 20.8345 3.49353 21.0455 3.7045C21.2565 3.91548 21.375 4.20163 21.375 4.5V22.5C21.375 22.7984 21.2565 23.0845 21.0455 23.2955C20.8345 23.5065 20.5484 23.625 20.25 23.625C19.9517 23.625 19.6655 23.5065 19.4545 23.2955C19.2435 23.0845 19.125 22.7984 19.125 22.5V4.5C19.125 4.20163 19.2435 3.91548 19.4545 3.7045C19.6655 3.49353 19.9517 3.375 20.25 3.375V3.375Z" fill="#3D50FF"/>
</g>
</svg>
