<svg width="25" height="20" viewBox="0 0 25 20" fill="none" xmlns="http://www.w3.org/2000/svg">
<path fill-rule="evenodd" clip-rule="evenodd" d="M0.671875 1.76562C0.671875 1.21334 1.11959 0.765625 1.67188 0.765625H23.3281C23.8804 0.765625 24.3281 1.21334 24.3281 1.76562C24.3281 2.31791 23.8804 2.76562 23.3281 2.76562H1.67188C1.11959 2.76562 0.671875 2.31791 0.671875 1.76562ZM0.671875 10.0156C0.671875 9.46334 1.11959 9.01562 1.67188 9.01562H23.3281C23.8804 9.01562 24.3281 9.46334 24.3281 10.0156C24.3281 10.5679 23.8804 11.0156 23.3281 11.0156H1.67188C1.11959 11.0156 0.671875 10.5679 0.671875 10.0156ZM0.671875 18.2656C0.671875 17.7133 1.11959 17.2656 1.67188 17.2656H23.3281C23.8804 17.2656 24.3281 17.7133 24.3281 18.2656C24.3281 18.8179 23.8804 19.2656 23.3281 19.2656H1.67188C1.11959 19.2656 0.671875 18.8179 0.671875 18.2656Z" fill="#5EC6B8"/>
</svg>
