<svg width="17" height="22" viewBox="0 0 17 22" fill="none" xmlns="http://www.w3.org/2000/svg">
<g opacity="0.5">
<path d="M14.4559 7.94913C14.4559 6.37541 13.8284 4.86615 12.7114 3.75336C11.5945 2.64057 10.0796 2.01541 8.5 2.01541C6.9204 2.01541 5.4055 2.64057 4.28856 3.75336C3.17161 4.86615 2.54412 6.37541 2.54412 7.94913V15.8608H14.4559V7.94913ZM16.4412 16.5204L16.8382 17.0475C16.8935 17.121 16.9272 17.2083 16.9355 17.2998C16.9438 17.3912 16.9263 17.4832 16.8851 17.5653C16.8439 17.6475 16.7805 17.7165 16.7021 17.7648C16.6237 17.8131 16.5333 17.8387 16.4412 17.8387H0.558824C0.466651 17.8387 0.376298 17.8131 0.297891 17.7648C0.219484 17.7165 0.15612 17.6475 0.114898 17.5653C0.0736773 17.4832 0.0562281 17.3912 0.0645057 17.2998C0.0727834 17.2083 0.106461 17.121 0.161765 17.0475L0.558824 16.5204V7.94913C0.558824 5.85084 1.39548 3.83849 2.88474 2.35477C4.374 0.87105 6.39387 0.0375061 8.5 0.0375061C10.6061 0.0375061 12.626 0.87105 14.1153 2.35477C15.6045 3.83849 16.4412 5.85084 16.4412 7.94913V16.5204ZM6.01838 18.8276H10.9816C10.9816 19.4833 10.7202 20.1122 10.2548 20.5759C9.78938 21.0395 9.15817 21.3 8.5 21.3C7.84183 21.3 7.21062 21.0395 6.74523 20.5759C6.27984 20.1122 6.01838 19.4833 6.01838 18.8276Z" fill="#5EC6B8"/>
</g>
</svg>
