<svg width="24" height="24" viewBox="0 0 24 24" fill="none" xmlns="http://www.w3.org/2000/svg">
<path d="M12 23.5C8.92824 23.5 6.0403 22.3038 3.86824 20.1318C1.69618 17.9597 0.5 15.0718 0.5 12C0.5 8.92824 1.69622 6.04035 3.86824 3.86824C6.04026 1.69613 8.92824 0.5 12 0.5C15.0718 0.5 17.9597 1.69618 20.1318 3.86824C22.3038 6.0403 23.5 8.92824 23.5 12C23.5 15.0718 22.3038 17.9596 20.1318 20.1318C17.9597 22.3039 15.0718 23.5 12 23.5V23.5ZM12 1.9375C6.45152 1.9375 1.9375 6.45152 1.9375 12C1.9375 17.5485 6.45152 22.0625 12 22.0625C17.5485 22.0625 22.0625 17.5485 22.0625 12C22.0625 6.45152 17.5485 1.9375 12 1.9375Z" fill="#5EC6B8"/>
<path d="M12 11.2812C11.0092 11.2812 10.2031 10.4752 10.2031 9.48438C10.2031 8.49358 11.0092 7.6875 12 7.6875C12.9908 7.6875 13.7969 8.49358 13.7969 9.48438C13.7969 9.8813 14.1187 10.2031 14.5156 10.2031C14.9126 10.2031 15.2344 9.8813 15.2344 9.48438C15.2344 7.948 14.1572 6.65933 12.7188 6.33149V5.53125C12.7188 5.13432 12.397 4.8125 12 4.8125C11.603 4.8125 11.2812 5.13432 11.2812 5.53125V6.33149C9.84276 6.65933 8.76562 7.948 8.76562 9.48438C8.76562 11.2678 10.2166 12.7188 12 12.7188C12.9908 12.7188 13.7969 13.5248 13.7969 14.5156C13.7969 15.5064 12.9908 16.3125 12 16.3125C11.0092 16.3125 10.2031 15.5064 10.2031 14.5156C10.2031 14.1187 9.88135 13.7969 9.48438 13.7969C9.0874 13.7969 8.76562 14.1187 8.76562 14.5156C8.76562 16.052 9.84276 17.3407 11.2812 17.6685V18.4688C11.2812 18.8657 11.603 19.1875 12 19.1875C12.397 19.1875 12.7188 18.8657 12.7188 18.4688V17.6685C14.1572 17.3407 15.2344 16.052 15.2344 14.5156C15.2344 12.7322 13.7834 11.2812 12 11.2812Z" fill="#5EC6B8"/>
</svg>
