<svg width="27" height="27" viewBox="0 0 27 27" fill="none" xmlns="http://www.w3.org/2000/svg">
<g opacity="0.5">
<path fill-rule="evenodd" clip-rule="evenodd" d="M13.5004 7.50864C13.1858 7.97642 12.7194 8.32004 12.1835 8.47886C12.525 8.92678 12.7032 9.48276 12.6865 10.0487C13.2122 9.85775 13.7887 9.85775 14.3143 10.0487C14.2977 9.48276 14.4758 8.92678 14.8174 8.47886C14.2814 8.32004 13.815 7.97642 13.5004 7.50864ZM14.3627 5.54935C14.0956 4.6964 12.9053 4.6964 12.6381 5.54935L12.3691 6.40806C12.2491 6.79114 11.8972 7.05041 11.5008 7.04776L10.6123 7.0418C9.72968 7.03588 9.36185 8.18377 10.0793 8.70501L10.8016 9.22976C11.1238 9.46386 11.2582 9.88337 11.1333 10.2648L10.8531 11.1198C10.5748 11.9691 11.5378 12.6786 12.2484 12.1478L12.9638 11.6134C13.2829 11.375 13.7179 11.375 14.0371 11.6134L14.7524 12.1478C15.463 12.6786 16.426 11.9691 16.1477 11.1198L15.8676 10.2648C15.7426 9.88337 15.877 9.46386 16.1992 9.22976L16.9215 8.70501C17.639 8.18377 17.2712 7.03588 16.3886 7.0418L15.5 7.04776C15.1037 7.05041 14.7517 6.79114 14.6317 6.40806L14.3627 5.54935Z" fill="#5EC6B8"/>
<path fill-rule="evenodd" clip-rule="evenodd" d="M19.927 2.54159H13.5V1.01251H19.927C21.2278 1.01251 22.2949 2.13568 22.1449 3.49171C21.8972 5.72989 21.4167 8.49287 20.6274 10.9424C20.2326 12.1674 19.7543 13.3341 19.1771 14.324C18.6032 15.3084 17.9056 16.1628 17.0529 16.7069C16.7228 16.9175 16.4284 17.1814 16.2441 17.4534C16.0635 17.7201 16.0228 17.9373 16.0639 18.1214C16.3334 19.3286 16.7149 20.5794 17.1433 21.231L17.9248 22.4196H13.5V20.8906H15.3017C14.9987 20.1106 14.7636 19.2227 14.5931 18.459C14.4316 17.7355 14.664 17.0854 15.0012 16.5876C15.3348 16.0952 15.8031 15.6978 16.2497 15.4128C16.8241 15.0463 17.3721 14.4153 17.879 13.5459C18.3827 12.6821 18.8205 11.6266 19.194 10.4675C19.9411 8.14884 20.4057 5.49574 20.6463 3.32122C20.6911 2.91648 20.3736 2.54159 19.927 2.54159Z" fill="#5EC6B8"/>
<path fill-rule="evenodd" clip-rule="evenodd" d="M7.073 2.54159H13.5V1.01251H7.073C5.77223 1.01251 4.7051 2.13568 4.85514 3.49171C5.1028 5.72989 5.58328 8.49287 6.37262 10.9424C6.76737 12.1674 7.24569 13.3341 7.82289 14.324C8.39681 15.3084 9.09438 16.1628 9.94715 16.7069C10.2772 16.9175 10.5716 17.1814 10.7559 17.4534C10.9365 17.7201 10.9772 17.9373 10.9361 18.1214C10.6666 19.3286 10.2851 20.5794 9.85668 21.231L9.0752 22.4196H13.5V20.8906H11.6983C12.0013 20.1106 12.2364 19.2227 12.4069 18.459C12.5684 17.7355 12.336 17.0854 11.9988 16.5876C11.6652 16.0952 11.1969 15.6978 10.7503 15.4128C10.1759 15.0463 9.62791 14.4153 9.12098 13.5459C8.61733 12.6821 8.17952 11.6266 7.80602 10.4675C7.05885 8.14884 6.59433 5.49574 6.35372 3.32122C6.30893 2.91648 6.62642 2.54159 7.073 2.54159Z" fill="#5EC6B8"/>
<path fill-rule="evenodd" clip-rule="evenodd" d="M6.71338 22.1648C6.71338 21.4611 7.276 20.8906 7.97003 20.8906H19.0285C19.7226 20.8906 20.2852 21.4611 20.2852 22.1648V23.1842C20.2852 24.7324 19.0474 25.9875 17.5206 25.9875H9.47801C7.95115 25.9875 6.71338 24.7324 6.71338 23.1842V22.1648ZM8.22136 22.4196V23.1842C8.22136 23.8879 8.78398 24.4584 9.47801 24.4584H17.5206C18.2146 24.4584 18.7772 23.8879 18.7772 23.1842V22.4196H8.22136Z" fill="#5EC6B8"/>
<path fill-rule="evenodd" clip-rule="evenodd" d="M3.97762 3.09552C4.77566 3.23727 5.60746 3.69833 6.11811 4.05141L5.26855 5.31473C4.83264 5.01333 4.20909 4.689 3.71744 4.60167C3.4722 4.55812 3.36078 4.59185 3.3298 4.60803C3.32126 4.61249 3.3141 4.61722 3.30313 4.63367C3.28972 4.65376 3.26083 4.70732 3.24028 4.82094C3.19553 5.06845 3.18259 5.50153 3.20955 6.08545C3.23577 6.65317 3.29676 7.31181 3.37725 7.98257C3.5389 9.32965 3.77319 10.677 3.94105 11.374C4.02651 11.7288 4.17587 11.9586 4.3573 12.1235C4.54692 12.296 4.81035 12.4321 5.16786 12.531C5.90712 12.7354 6.85259 12.7354 7.94214 12.7354H7.97079V14.2645C7.92369 14.2645 7.87625 14.2645 7.82851 14.2645C6.83425 14.2651 5.70996 14.2658 4.77109 14.0062C4.26376 13.8659 3.76571 13.6394 3.35058 13.262C2.92726 12.8771 2.6286 12.3698 2.47612 11.7367C2.2893 10.9611 2.04618 9.54954 1.88031 8.16726C1.79704 7.47333 1.73175 6.77468 1.70323 6.15696C1.67545 5.55543 1.67933 4.97494 1.75703 4.54521C1.86103 3.96999 2.15129 3.50357 2.63925 3.2487C3.08599 3.01536 3.57801 3.02455 3.97762 3.09552Z" fill="#5EC6B8"/>
<path fill-rule="evenodd" clip-rule="evenodd" d="M23.0224 3.09549C22.2243 3.23724 21.3925 3.69829 20.8819 4.05138L21.7315 5.3147C22.1674 5.0133 22.7909 4.68897 23.2826 4.60164C23.5278 4.55808 23.6392 4.59182 23.6702 4.608C23.6787 4.61246 23.6859 4.61719 23.6969 4.63364C23.7103 4.65373 23.7392 4.70729 23.7597 4.82091C23.8045 5.06842 23.8174 5.5015 23.7904 6.08541C23.7642 6.65313 23.7032 7.31178 23.6228 7.98253C23.4611 9.32962 23.2268 10.677 23.059 11.3739C22.9735 11.7288 22.8241 11.9586 22.6427 12.1235C22.4531 12.2959 22.1897 12.4321 21.8321 12.531C21.0929 12.7354 20.1474 12.7354 19.0579 12.7354H19.0292V14.2644C19.0763 14.2644 19.1238 14.2645 19.1715 14.2645C20.1658 14.2651 21.29 14.2658 22.2289 14.0062C22.7362 13.8659 23.2343 13.6394 23.6494 13.2619C24.0727 12.8771 24.3714 12.3698 24.5239 11.7367C24.7107 10.961 24.9538 9.54951 25.1197 8.16723C25.203 7.4733 25.2683 6.77465 25.2968 6.15693C25.3245 5.5554 25.3207 4.9749 25.243 4.54518C25.139 3.96996 24.8487 3.50354 24.3607 3.24867C23.914 3.01533 23.422 3.02452 23.0224 3.09549Z" fill="#5EC6B8"/>
</g>
</svg>
