<svg width="24" height="24" viewBox="0 0 24 24" fill="none" xmlns="http://www.w3.org/2000/svg">
<path d="M12.0001 20.9444C10.4823 20.9444 9.08639 20.5989 7.81248 19.9077C6.53858 19.2165 5.49506 18.295 4.68193 17.1431V18.5051C4.68193 18.7354 4.60414 18.9284 4.44856 19.084C4.29244 19.2401 4.09918 19.3182 3.8688 19.3182C3.63841 19.3182 3.44543 19.2401 3.28985 19.084C3.13372 18.9284 3.05566 18.7354 3.05566 18.5051V15.2525C3.05566 15.0221 3.13372 14.8289 3.28985 14.6728C3.44543 14.5172 3.63841 14.4394 3.8688 14.4394H7.12132C7.35171 14.4394 7.54496 14.5172 7.70108 14.6728C7.85666 14.8289 7.93445 15.0221 7.93445 15.2525C7.93445 15.4829 7.85666 15.6759 7.70108 15.8315C7.54496 15.9876 7.35171 16.0657 7.12132 16.0657H5.92195C6.57246 17.0414 7.42977 17.8274 8.49389 18.4237C9.55746 19.02 10.7262 19.3182 12.0001 19.3182C13.8974 19.3182 15.534 18.6948 16.9098 17.448C18.2851 16.2012 19.0744 14.6562 19.2776 12.8131C19.3047 12.5827 19.3964 12.3895 19.5525 12.2334C19.7081 12.0778 19.901 12 20.1314 12C20.3618 12 20.5548 12.0813 20.7104 12.2439C20.8665 12.4066 20.931 12.5963 20.9039 12.8131C20.809 13.9515 20.5076 15.0154 19.9997 16.0047C19.4912 16.994 18.8407 17.8545 18.0482 18.5864C17.2551 19.3182 16.3401 19.8942 15.303 20.3143C14.2666 20.7344 13.1656 20.9444 12.0001 20.9444ZM3.8688 12C3.63841 12 3.44543 11.9187 3.28985 11.7561C3.13372 11.5934 3.06922 11.4037 3.09632 11.1869C3.20474 10.0485 3.50966 8.98464 4.01109 7.99533C4.51252 7.00602 5.15951 6.14546 5.95204 5.41364C6.74511 4.68182 7.66016 4.10585 8.69717 3.68573C9.73364 3.26562 10.8346 3.05556 12.0001 3.05556C13.518 3.05556 14.9138 3.40114 16.1877 4.0923C17.4616 4.78346 18.5052 5.70501 19.3183 6.85695V5.49495C19.3183 5.26456 19.3964 5.07131 19.5525 4.91519C19.7081 4.75961 19.901 4.68182 20.1314 4.68182C20.3618 4.68182 20.5548 4.75961 20.7104 4.91519C20.8665 5.07131 20.9446 5.26456 20.9446 5.49495V8.74748C20.9446 8.97786 20.8665 9.17085 20.7104 9.32643C20.5548 9.48255 20.3618 9.56061 20.1314 9.56061H16.8789C16.6485 9.56061 16.4555 9.48255 16.2999 9.32643C16.1438 9.17085 16.0658 8.97786 16.0658 8.74748C16.0658 8.51709 16.1438 8.32384 16.2999 8.16771C16.4555 8.01214 16.6485 7.93435 16.8789 7.93435H18.0783C17.4278 6.95859 16.5704 6.17256 15.5063 5.57626C14.4428 4.97997 13.274 4.68182 12.0001 4.68182C10.1028 4.68182 8.46651 5.30522 7.09123 6.55202C5.71542 7.79882 4.92587 9.34377 4.72258 11.1869C4.69548 11.4173 4.60414 11.6102 4.44856 11.7658C4.29244 11.9219 4.09918 12 3.8688 12ZM11.9798 17.6919C11.7901 17.6919 11.6242 17.6209 11.4821 17.4789C11.3396 17.3363 11.2683 17.1702 11.2683 16.9804V16.6349C10.7533 16.5264 10.3129 16.3264 9.94695 16.0348C9.58104 15.7437 9.28967 15.3677 9.07284 14.9069C8.99152 14.7308 8.99505 14.5478 9.08341 14.3581C9.17123 14.1684 9.31 14.0396 9.49973 13.9718C9.67591 13.9041 9.85209 13.9041 10.0283 13.9718C10.2044 14.0396 10.3467 14.1684 10.4552 14.3581C10.6449 14.6969 10.8821 14.9509 11.1666 15.12C11.4512 15.2897 11.7697 15.3745 12.1221 15.3745C12.5693 15.3745 12.952 15.2693 13.2702 15.059C13.589 14.8492 13.7483 14.5207 13.7483 14.0735C13.7483 13.6805 13.5825 13.362 13.2507 13.1181C12.9184 12.8741 12.3254 12.5963 11.4716 12.2846C10.672 12 10.086 11.6612 9.71358 11.2682C9.34063 10.8752 9.15415 10.3602 9.15415 9.72323C9.15415 9.16759 9.34388 8.66616 9.72334 8.21894C10.1028 7.77172 10.6313 7.47357 11.3089 7.3245V7.01957C11.3089 6.82984 11.3802 6.66369 11.5228 6.52112C11.6648 6.3791 11.8307 6.30808 12.0204 6.30808C12.2102 6.30808 12.376 6.3791 12.5181 6.52112C12.6606 6.66369 12.7319 6.82984 12.7319 7.01957V7.3245C13.0978 7.3516 13.4402 7.47357 13.7589 7.69041C14.0771 7.90724 14.3446 8.17151 14.5615 8.48321C14.6699 8.64584 14.687 8.82527 14.6127 9.0215C14.5379 9.21828 14.3988 9.35733 14.1956 9.43864C14.0465 9.5064 13.8874 9.50992 13.7183 9.44921C13.5486 9.38795 13.396 9.27601 13.2605 9.11339C13.1249 8.95076 12.9555 8.82201 12.7523 8.72715C12.549 8.63228 12.3118 8.58485 12.0408 8.58485C11.5664 8.58485 11.2041 8.68649 10.9536 8.88977C10.7026 9.09306 10.5771 9.37088 10.5771 9.72323C10.5771 10.0756 10.733 10.3534 11.0447 10.5567C11.3564 10.76 11.9188 10.9971 12.7319 11.2682C13.7077 11.6205 14.3582 12.0339 14.6834 12.5082C15.0087 12.9825 15.1713 13.5043 15.1713 14.0735C15.1713 14.8731 14.9274 15.4761 14.4395 15.8827C13.9516 16.2893 13.3689 16.5535 12.6913 16.6755V16.9804C12.6913 17.1702 12.6203 17.3363 12.4782 17.4789C12.3357 17.6209 12.1695 17.6919 11.9798 17.6919Z" fill="#5EC6B8"/>
</svg>
